HIERARCHY
ROOT newVegas:Hips
{
	OFFSET 0.000000 96.479958 0.000000
	CHANNELS 6 Xposition Yposition Zposition Xrotation Yrotation Zrotation
	JOINT newVegas:Pelvis
	{
		OFFSET 0.000000 0.000000 0.000000
		CHANNELS 3 Xrotation Yrotation Zrotation
		JOINT newVegas:LeftUpLeg
		{
			OFFSET 18.735201 -5.666702 -4.541200
			CHANNELS 3 Xrotation Yrotation Zrotation
			JOINT newVegas:LeftLeg
			{
				OFFSET -0.021200 -31.938179 0.493100
				CHANNELS 3 Xrotation Yrotation Zrotation
				JOINT newVegas:LeftFoot
				{
					OFFSET 0.021200 -31.938179 -4.336299
					CHANNELS 3 Xrotation Yrotation Zrotation
					JOINT newVegas:LeftToeBase
					{
						OFFSET 0.943001 -26.722000 15.023500
						CHANNELS 3 Xrotation Yrotation Zrotation
						End Site
						{
							OFFSET 0.000000 30.670183 0.000000
						}
					}
				}
				JOINT newVegas:Left_PantLeg
				{
					OFFSET 0.663870 -9.044666 -1.108900
					CHANNELS 3 Xrotation Yrotation Zrotation
					End Site
					{
						OFFSET 1.415995 20.635357 0.000000
					}
				}
			}
		}
		JOINT newVegas:RightUpLeg
		{
			OFFSET -18.735201 -5.666702 -4.541200
			CHANNELS 3 Xrotation Yrotation Zrotation
			JOINT newVegas:RightLeg
			{
				OFFSET 0.018946 -31.938133 0.493100
				CHANNELS 3 Xrotation Yrotation Zrotation
				JOINT newVegas:RightFoot
				{
					OFFSET -0.018946 -31.938126 -4.336299
					CHANNELS 3 Xrotation Yrotation Zrotation
					JOINT newVegas:RightToeBase
					{
						OFFSET -0.943001 -26.722004 15.023500
						CHANNELS 3 Xrotation Yrotation Zrotation
						End Site
						{
							OFFSET 0.000000 30.670187 0.000000
						}
					}
				}
				JOINT newVegas:Right_PantLeg
				{
					OFFSET -0.661674 -9.044716 -1.108900
					CHANNELS 3 Xrotation Yrotation Zrotation
					End Site
					{
						OFFSET -1.415958 20.635269 0.000000
					}
				}
			}
		}
	}
	JOINT newVegas:Spine
	{
		OFFSET 0.000000 10.199997 -0.299500
		CHANNELS 3 Xrotation Yrotation Zrotation
		JOINT newVegas:Spine1
		{
			OFFSET 0.000000 11.900002 -1.516600
			CHANNELS 3 Xrotation Yrotation Zrotation
			JOINT newVegas:Spine2
			{
				OFFSET 0.000000 13.600006 -2.842500
				CHANNELS 3 Xrotation Yrotation Zrotation
				JOINT newVegas:Neck
				{
					OFFSET 0.000000 9.624100 -2.890100
					CHANNELS 3 Xrotation Yrotation Zrotation
					JOINT newVegas:Head
					{
						OFFSET 0.000000 14.068802 -1.351900
						CHANNELS 3 Xrotation Yrotation Zrotation
						JOINT newVegas:Hair_Back
						{
							OFFSET 0.000000 3.231903 -17.524799
							CHANNELS 3 Xrotation Yrotation Zrotation
							End Site
							{
								OFFSET 0.000000 19.849884 0.000000
							}
						}
						JOINT newVegas:Hair_Front
						{
							OFFSET 0.000000 31.260406 4.573800
							CHANNELS 3 Xrotation Yrotation Zrotation
							JOINT newVegas:Hair_Front1
							{
								OFFSET 0.000000 2.284103 11.993300
								CHANNELS 3 Xrotation Yrotation Zrotation
								JOINT newVegas:Hair_Front2
								{
									OFFSET 0.000000 2.284103 11.993300
									CHANNELS 3 Xrotation Yrotation Zrotation
									End Site
									{
										OFFSET 0.000000 12.208862 0.000000
									}
								}
							}
						}
						JOINT newVegas:Jowel
						{
							OFFSET 0.000000 -7.458206 6.864100
							CHANNELS 3 Xrotation Yrotation Zrotation
							End Site
							{
								OFFSET 0.000000 19.849884 0.000000
							}
						}
					}
				}
				JOINT newVegas:LeftShoulder
				{
					OFFSET 15.263000 10.923401 -0.547700
					CHANNELS 3 Xrotation Yrotation Zrotation
					JOINT newVegas:LeftArm
					{
						OFFSET 25.438599 -2.830597 -13.032500
						CHANNELS 3 Xrotation Yrotation Zrotation
						JOINT newVegas:LeftForeArm
						{
							OFFSET 29.960503 0.000000 0.000000
							CHANNELS 3 Xrotation Yrotation Zrotation
							JOINT newVegas:LeftHand
							{
								OFFSET 27.849251 0.000000 0.000000
								CHANNELS 3 Xrotation Yrotation Zrotation
								JOINT newVegas:LeftHandThumb1
								{
									OFFSET 4.487587 -3.305161 6.305391
									CHANNELS 3 Xrotation Yrotation Zrotation
									JOINT newVegas:LeftHandThumb2
									{
										OFFSET 5.480453 -3.164139 3.164143
										CHANNELS 3 Xrotation Yrotation Zrotation
										JOINT newVegas:LeftHandThumb3
										{
											OFFSET 5.159721 -2.978973 2.978967
											CHANNELS 3 Xrotation Yrotation Zrotation
											End Site
											{
												OFFSET 2.494507 5.926697 1.738678
											}
										}
									}
								}
								JOINT newVegas:LeftHandIndex1
								{
									OFFSET 18.578728 -0.527832 5.208049
									CHANNELS 3 Xrotation Yrotation Zrotation
									JOINT newVegas:LeftHandIndex2
									{
										OFFSET 3.192009 0.000000 0.000000
										CHANNELS 3 Xrotation Yrotation Zrotation
										JOINT newVegas:LeftHandIndex3
										{
											OFFSET 3.835129 0.000000 0.000000
											CHANNELS 3 Xrotation Yrotation Zrotation
											End Site
											{
												OFFSET -0.034599 3.816971 0.371180
											}
										}
									}
								}
								JOINT newVegas:LeftHandMiddle1
								{
									OFFSET 18.476105 0.000000 0.000000
									CHANNELS 3 Xrotation Yrotation Zrotation
									JOINT newVegas:LeftHandMiddle2
									{
										OFFSET 3.324875 0.000000 0.000000
										CHANNELS 3 Xrotation Yrotation Zrotation
										JOINT newVegas:LeftHandMiddle3
										{
											OFFSET 4.596550 0.000000 0.000000
											CHANNELS 3 Xrotation Yrotation Zrotation
											End Site
											{
												OFFSET 0.057701 4.578827 0.399218
											}
										}
									}
								}
								JOINT newVegas:LeftHandRing1
								{
									OFFSET 17.732719 0.121887 -4.201567
									CHANNELS 3 Xrotation Yrotation Zrotation
									JOINT newVegas:LeftHandRing2
									{
										OFFSET 2.733170 0.000000 0.000000
										CHANNELS 3 Xrotation Yrotation Zrotation
										JOINT newVegas:LeftHandRing3
										{
											OFFSET 3.178268 0.000000 0.000000
											CHANNELS 3 Xrotation Yrotation Zrotation
											End Site
											{
												OFFSET 0.119102 3.170624 0.185394
											}
										}
									}
								}
								JOINT newVegas:LeftHandPinky1
								{
									OFFSET 15.989624 -0.606689 -7.535461
									CHANNELS 3 Xrotation Yrotation Zrotation
									JOINT newVegas:LeftHandPinky2
									{
										OFFSET 2.538986 0.000000 0.000000
										CHANNELS 3 Xrotation Yrotation Zrotation
										JOINT newVegas:LeftHandPinky3
										{
											OFFSET 2.593102 0.000000 0.000000
											CHANNELS 3 Xrotation Yrotation Zrotation
											End Site
											{
												OFFSET -0.150902 2.584198 0.152708
											}
										}
									}
								}
							}
							JOINT newVegas:Left_Sleeve
							{
								OFFSET 0.267448 -0.649796 0.577675
								CHANNELS 3 Xrotation Yrotation Zrotation
								End Site
								{
									OFFSET 0.000000 15.991241 0.000000
								}
							}
							JOINT newVegas:Left_CapeC
							{
								OFFSET 15.715958 -8.608795 -6.935905
								CHANNELS 3 Xrotation Yrotation Zrotation
								JOINT newVegas:Left_CapeC1
								{
									OFFSET 0.000000 -8.688499 0.000000
									CHANNELS 3 Xrotation Yrotation Zrotation
									End Site
									{
										OFFSET 0.000000 8.688499 0.000000
									}
								}
							}
						}
						JOINT newVegas:Left_CapeB
						{
							OFFSET 26.118385 -8.608795 -7.079235
							CHANNELS 3 Xrotation Yrotation Zrotation
							JOINT newVegas:Left_CapeB1
							{
								OFFSET 0.000000 -8.688499 0.000000
								CHANNELS 3 Xrotation Yrotation Zrotation
								End Site
								{
									OFFSET 0.000000 8.688499 0.000000
								}
							}
						}
						JOINT newVegas:Left_CapeA
						{
							OFFSET 5.115639 -8.608795 -10.395809
							CHANNELS 3 Xrotation Yrotation Zrotation
							JOINT newVegas:Left_CapeA1
							{
								OFFSET 0.000000 -8.688499 0.000000
								CHANNELS 3 Xrotation Yrotation Zrotation
								End Site
								{
									OFFSET 0.000000 8.688499 0.000000
								}
							}
						}
					}
				}
				JOINT newVegas:RightShoulder
				{
					OFFSET -15.263000 10.923401 -0.547700
					CHANNELS 3 Xrotation Yrotation Zrotation
					JOINT newVegas:RightArm
					{
						OFFSET -25.438599 -2.830597 -13.032500
						CHANNELS 3 Xrotation Yrotation Zrotation
						JOINT newVegas:RightForeArm
						{
							OFFSET -29.960503 0.000000 0.000000
							CHANNELS 3 Xrotation Yrotation Zrotation
							JOINT newVegas:RightHand
							{
								OFFSET -27.849251 0.000000 0.000000
								CHANNELS 3 Xrotation Yrotation Zrotation
								JOINT newVegas:RightHandThumb1
								{
									OFFSET -4.487587 -3.305161 6.305391
									CHANNELS 3 Xrotation Yrotation Zrotation
									JOINT newVegas:RightHandThumb2
									{
										OFFSET -5.480453 -3.164139 3.164143
										CHANNELS 3 Xrotation Yrotation Zrotation
										JOINT newVegas:RightHandThumb3
										{
											OFFSET -5.159721 -2.978973 2.978967
											CHANNELS 3 Xrotation Yrotation Zrotation
											End Site
											{
												OFFSET -2.494507 5.926697 1.738678
											}
										}
									}
								}
								JOINT newVegas:RightHandIndex1
								{
									OFFSET -18.578728 -0.527832 5.208049
									CHANNELS 3 Xrotation Yrotation Zrotation
									JOINT newVegas:RightHandIndex2
									{
										OFFSET -3.192009 0.000000 0.000000
										CHANNELS 3 Xrotation Yrotation Zrotation
										JOINT newVegas:RightHandIndex3
										{
											OFFSET -3.835129 0.000000 0.000000
											CHANNELS 3 Xrotation Yrotation Zrotation
											End Site
											{
												OFFSET 0.034599 3.816971 0.371180
											}
										}
									}
								}
								JOINT newVegas:RightHandMiddle1
								{
									OFFSET -18.476105 0.000000 0.000000
									CHANNELS 3 Xrotation Yrotation Zrotation
									JOINT newVegas:RightHandMiddle2
									{
										OFFSET -3.324875 0.000000 0.000000
										CHANNELS 3 Xrotation Yrotation Zrotation
										JOINT newVegas:RightHandMiddle3
										{
											OFFSET -4.596550 0.000000 0.000000
											CHANNELS 3 Xrotation Yrotation Zrotation
											End Site
											{
												OFFSET -0.057701 4.578827 0.399218
											}
										}
									}
								}
								JOINT newVegas:RightHandRing1
								{
									OFFSET -17.732719 0.121887 -4.201567
									CHANNELS 3 Xrotation Yrotation Zrotation
									JOINT newVegas:RightHandRing2
									{
										OFFSET -2.733170 0.000000 0.000000
										CHANNELS 3 Xrotation Yrotation Zrotation
										JOINT newVegas:RightHandRing3
										{
											OFFSET -3.178268 0.000000 0.000000
											CHANNELS 3 Xrotation Yrotation Zrotation
											End Site
											{
												OFFSET -0.119102 3.170624 0.185394
											}
										}
									}
								}
								JOINT newVegas:RightHandPinky1
								{
									OFFSET -15.989624 -0.606689 -7.535461
									CHANNELS 3 Xrotation Yrotation Zrotation
									JOINT newVegas:RightHandPinky2
									{
										OFFSET -2.538986 0.000000 0.000000
										CHANNELS 3 Xrotation Yrotation Zrotation
										JOINT newVegas:RightHandPinky3
										{
											OFFSET -2.593102 0.000000 0.000000
											CHANNELS 3 Xrotation Yrotation Zrotation
											End Site
											{
												OFFSET 0.150902 2.584198 0.152708
											}
										}
									}
								}
							}
							JOINT newVegas:Right_CapeC
							{
								OFFSET -15.715958 -8.608795 -6.935905
								CHANNELS 3 Xrotation Yrotation Zrotation
								JOINT newVegas:Right_CapeC1
								{
									OFFSET 0.000000 -8.688499 0.000000
									CHANNELS 3 Xrotation Yrotation Zrotation
									End Site
									{
										OFFSET 0.000000 8.688499 0.000000
									}
								}
							}
							JOINT newVegas:Right_Sleeve
							{
								OFFSET -0.267448 -0.649994 0.577675
								CHANNELS 3 Xrotation Yrotation Zrotation
								End Site
								{
									OFFSET 0.000000 15.991302 0.000000
								}
							}
						}
						JOINT newVegas:Right_CapeA
						{
							OFFSET -5.115540 -8.608795 -10.395824
							CHANNELS 3 Xrotation Yrotation Zrotation
							JOINT newVegas:Right_CapeA1
							{
								OFFSET 0.000000 -8.688499 0.000000
								CHANNELS 3 Xrotation Yrotation Zrotation
								End Site
								{
									OFFSET 0.000000 8.688499 0.000000
								}
							}
						}
						JOINT newVegas:Right_CapeB
						{
							OFFSET -26.118187 -8.608795 -7.079266
							CHANNELS 3 Xrotation Yrotation Zrotation
							JOINT newVegas:Right_CapeB1
							{
								OFFSET 0.000000 -8.688499 0.000000
								CHANNELS 3 Xrotation Yrotation Zrotation
								End Site
								{
									OFFSET 0.000000 8.688499 0.000000
								}
							}
						}
					}
				}
				JOINT newVegas:Left_Collar
				{
					OFFSET 18.625099 8.655502 8.828100
					CHANNELS 3 Xrotation Yrotation Zrotation
					JOINT newVegas:Left_Collar1
					{
						OFFSET 14.783401 10.540405 -1.259500
						CHANNELS 3 Xrotation Yrotation Zrotation
						End Site
						{
							OFFSET 0.000000 18.199875 0.000000
						}
					}
				}
				JOINT newVegas:Collar_Back
				{
					OFFSET 0.000000 15.630707 -20.132601
					CHANNELS 3 Xrotation Yrotation Zrotation
					End Site
					{
						OFFSET 0.000000 22.523010 0.000000
					}
				}
				JOINT newVegas:Left_Peck
				{
					OFFSET 17.239599 -5.132599 25.482599
					CHANNELS 3 Xrotation Yrotation Zrotation
					End Site
					{
						OFFSET 0.000000 22.523010 0.000000
					}
				}
				JOINT newVegas:Right_Peck
				{
					OFFSET -17.239599 -5.132202 25.482599
					CHANNELS 3 Xrotation Yrotation Zrotation
					End Site
					{
						OFFSET 0.000000 22.523010 0.000000
					}
				}
				JOINT newVegas:Right_Collar
				{
					OFFSET -18.625099 8.655792 8.828100
					CHANNELS 3 Xrotation Yrotation Zrotation
					JOINT newVegas:Right_Collar1
					{
						OFFSET -14.783401 10.539993 -1.259500
						CHANNELS 3 Xrotation Yrotation Zrotation
						End Site
						{
							OFFSET 0.000000 18.199631 0.000000
						}
					}
				}
			}
		}
		JOINT newVegas:Belly
		{
			OFFSET 0.000000 -6.540398 9.014299
			CHANNELS 3 Xrotation Yrotation Zrotation
			End Site
			{
				OFFSET 0.000000 11.566666 0.000000
			}
		}
	}
	JOINT newVegas:ElvisFacialAnim_Joint
	{
		OFFSET 1.000000 -95.330101 -8.825800
		CHANNELS 3 Xrotation Yrotation Zrotation
		End Site
		{
			OFFSET 0.000000 35.315800 0.000000
		}
	}
}
MOTION
Frames: 4
Frame Time: 0.033333
-0.025682 80.724197 63.473793 12.780162 -28.184120 10.635072 -0.000000 -0.000001 0.000001 -43.600649 12.591414 -0.704698 66.464694 6.913780 -6.050187 -34.714331 7.448004 4.118852 -0.000000 -0.000000 -0.000000 0.000001 -0.000000 0.000000 -58.540807 16.646207 4.072462 74.296073 2.321181 -5.431336 29.468107 5.445629 7.523137 -0.000001 -0.000000 -0.000000 -0.000001 -0.000001 -0.000001 19.226243 -7.048371 -4.920993 4.174873 -1.503337 -1.438136 4.206746 -1.450428 -1.383225 0.933765 0.647119 0.733692 0.933781 0.647110 0.733698 -0.000000 0.000001 -0.000003 0.933908 0.647142 0.733679 0.933615 0.647105 0.733690 -0.000000 -0.000000 0.000001 -0.000000 0.000001 -0.000002 9.621103 -13.809667 -10.795786 -29.352875 4.966499 -48.020611 -0.000007 -83.885733 -0.000012 -135.525529 8.116829 17.399384 22.866290 -27.221345 23.060303 -18.755215 11.865875 -5.299208 0.000001 -0.000002 -0.000003 2.843612 7.484830 -71.045770 2.288446 4.644409 -52.443067 -0.000001 0.000001 -0.000001 2.641035 7.401404 -70.494287 3.025076 5.125439 -61.077375 0.000001 -0.000001 0.000000 1.328924 6.967402 -71.000807 3.334039 5.283695 -64.482245 -0.000000 0.000003 0.000002 -0.353187 7.253778 -80.576254 1.702933 4.130099 -44.800338 -0.000002 0.000000 -0.000001 -0.000000 0.000003 0.000005 -0.000000 0.000003 0.000005 -0.000001 0.000003 0.000005 0.000001 0.000001 0.000001 0.000002 0.000001 0.000000 0.000001 0.000001 0.000001 -0.000000 0.000001 0.000001 -0.913004 20.701380 19.402515 -0.902085 35.083509 28.253598 -0.000184 105.080985 0.000158 -31.838309 -30.799717 6.843890 52.323610 29.641908 -26.183149 42.378298 -24.930008 37.205154 0.000001 -0.000001 -0.000000 -2.012448 2.205787 21.312815 2.896818 -4.312341 67.768973 -0.000000 -0.000000 -0.000001 13.456670 -8.790155 78.781888 5.608641 -4.559127 101.801436 -0.000002 0.000000 -0.000001 8.262327 -7.055088 88.116045 5.520471 -4.576599 100.694276 0.000001 0.000001 0.000001 4.707891 -6.937687 92.892075 2.523289 -4.140470 62.703664 0.000000 0.000003 -0.000000 -0.000003 0.000000 -0.000001 -0.000002 -0.000000 -0.000000 -0.000002 0.000000 -0.000001 0.000002 0.000002 0.000000 0.000002 0.000002 0.000001 0.000002 0.000002 0.000000 0.000002 0.000002 0.000001 0.000003 0.000001 -0.000000 0.000003 0.000001 -0.000000 0.000003 0.000001 -0.000000 0.000003 0.000001 -0.000000 0.000003 0.000001 -0.000000 0.000003 0.000001 -0.000000 0.000003 0.000001 -0.000000 -0.000001 0.000002 -0.000001 -0.000000 -0.000001 0.000001 
0.030622 80.942932 65.611275 13.017572 -27.648073 10.505308 -0.000000 -0.000003 0.000000 -41.124859 12.436911 -1.874613 65.235246 7.569129 -6.323142 -36.180417 6.571515 4.297167 0.000000 0.000000 -0.000000 0.000001 -0.000000 0.000001 -62.388826 15.851833 5.705514 75.002983 2.255515 -5.290946 28.170885 5.352160 7.073337 -0.000000 0.000000 0.000001 -0.000000 0.000001 -0.000001 19.143941 -7.279911 -4.653131 4.184740 -1.573280 -1.398747 4.217356 -1.518253 -1.336492 0.899577 0.644703 0.720319 0.899590 0.644705 0.720318 0.000001 -0.000004 0.000001 0.899584 0.644682 0.720327 0.899479 0.644694 0.720326 0.000001 0.000001 -0.000002 0.000001 -0.000004 0.000002 9.634924 -13.910064 -10.820807 -29.537522 4.861862 -47.938181 -0.000037 -83.696510 -0.000051 -135.578476 8.224288 17.381349 22.843112 -27.266532 23.025133 -18.755213 11.865870 -5.299208 -0.000000 -0.000002 0.000000 2.849962 7.487968 -71.088547 2.288769 4.644651 -52.447056 -0.000002 -0.000001 -0.000000 2.647652 7.404861 -70.538096 3.025377 5.125587 -61.080490 -0.000001 -0.000001 0.000000 1.333032 6.971051 -71.043912 3.334038 5.283690 -64.482252 -0.000003 0.000001 -0.000000 -0.349486 7.258496 -80.619537 1.703005 4.130174 -44.801379 -0.000000 -0.000003 -0.000001 -0.000001 -0.000002 0.000000 -0.000001 -0.000002 0.000000 -0.000001 -0.000002 0.000000 0.000000 0.000000 0.000000 0.000000 0.000000 -0.000002 0.000000 0.000000 0.000000 -0.000001 -0.000000 -0.000000 -0.910504 20.692545 19.397609 -1.052093 35.057930 28.368255 0.000349 105.061287 -0.000350 -31.723657 -30.897932 6.839869 52.323607 29.641911 -26.183143 42.378298 -24.930009 37.205154 -0.000001 -0.000003 0.000001 -2.012449 2.205788 21.312818 2.896818 -4.312343 67.768966 0.000002 0.000000 -0.000000 13.456668 -8.790157 78.781888 5.608634 -4.559124 101.801436 -0.000001 -0.000001 0.000001 8.262330 -7.055082 88.116052 5.520465 -4.576597 100.694269 0.000001 0.000006 0.000002 4.707892 -6.937681 92.892075 2.523290 -4.140468 62.703664 0.000000 -0.000000 -0.000000 -0.000001 0.000000 -0.000002 0.000002 -0.000000 -0.000004 -0.000001 0.000000 -0.000002 -0.000001 0.000000 -0.000000 -0.000001 0.000000 -0.000000 -0.000001 0.000000 -0.000000 -0.000001 -0.000000 -0.000000 0.000002 0.000000 0.000000 0.000002 0.000000 0.000000 0.000002 0.000000 0.000000 0.000002 0.000000 0.000000 0.000002 0.000000 0.000000 0.000002 0.000000 0.000000 0.000002 0.000000 0.000000 -0.000000 0.000002 -0.000002 -0.000000 -0.000003 0.000000 
0.166623 81.428558 67.650703 13.262184 -26.802009 10.279967 -0.000000 0.000002 0.000000 -38.487013 12.334531 -3.023533 63.038145 8.117927 -6.413581 -36.888673 5.441030 4.541824 0.000000 -0.000000 -0.000000 -0.000000 -0.000000 0.000000 -67.328398 14.271850 7.726120 76.717272 0.964470 -5.112458 22.080284 6.160524 5.214323 -0.000002 -0.000000 0.000000 0.000002 0.000000 -0.000001 19.026798 -7.580333 -4.263119 4.192697 -1.681670 -1.368788 4.226596 -1.626021 -1.305180 0.874403 0.628076 0.724263 0.874417 0.628090 0.724262 -0.000000 -0.000002 0.000002 0.874439 0.628060 0.724272 0.874335 0.628045 0.724273 -0.000002 -0.000001 -0.000000 -0.000000 -0.000002 0.000001 9.653698 -14.040010 -10.833376 -29.780079 4.672537 -47.886077 0.000029 -83.146850 0.000034 -135.589090 8.476482 17.160832 22.890749 -27.555922 23.188456 -18.755215 11.865876 -5.299206 0.000000 -0.000003 -0.000003 2.833428 7.481046 -71.031672 2.291708 4.646914 -52.483351 -0.000000 -0.000001 -0.000000 2.632357 7.398120 -70.484923 3.025737 5.125781 -61.084663 0.000001 0.000002 0.000000 1.353036 6.974687 -70.982837 3.334035 5.283692 -64.482252 -0.000001 -0.000002 -0.000002 -0.333177 7.254978 -80.554711 1.704514 4.131709 -44.822481 0.000001 -0.000003 0.000001 -0.000003 0.000002 0.000001 -0.000003 0.000002 0.000001 -0.000003 0.000001 0.000001 -0.000002 0.000002 0.000001 -0.000001 0.000002 0.000001 -0.000002 0.000002 0.000001 -0.000003 0.000002 0.000001 -0.904615 20.668185 19.394580 -1.167920 35.074664 28.523613 0.000345 104.784254 -0.000361 -31.474495 -30.800981 6.959139 52.323600 29.641911 -26.183148 42.378295 -24.930006 37.205161 0.000001 -0.000003 0.000001 -2.012444 2.205790 21.312822 2.896813 -4.312345 67.768966 0.000001 -0.000001 0.000001 13.456671 -8.790158 78.781888 5.608642 -4.559124 101.801442 0.000001 -0.000002 -0.000000 8.262335 -7.055082 88.116038 5.520472 -4.576599 100.694269 0.000001 -0.000001 0.000000 4.707898 -6.937679 92.892069 2.523293 -4.140471 62.703671 -0.000000 0.000005 -0.000000 -0.000000 0.000001 0.000002 -0.000000 0.000000 0.000000 -0.000000 0.000001 0.000002 -0.000000 0.000002 0.000003 0.000000 0.000002 0.000003 -0.000000 0.000002 0.000003 0.000000 0.000001 0.000003 0.000003 0.000000 -0.000002 0.000003 0.000000 -0.000002 0.000003 0.000000 -0.000002 0.000003 0.000000 -0.000002 0.000003 0.000000 -0.000002 0.000003 0.000000 -0.000002 0.000003 0.000000 -0.000002 -0.000001 0.000001 -0.000000 -0.000000 0.000002 0.000000 
0.324531 81.869308 69.602409 13.478936 -25.918743 10.034305 -0.000001 -0.000001 -0.000000 -35.938410 12.259572 -4.108484 60.745018 8.196712 -6.415728 -37.458069 4.593148 5.027916 -0.000000 0.000000 -0.000000 0.000003 0.000001 0.000001 -71.077728 12.585460 9.208288 75.693406 -1.366749 -5.154785 17.442560 8.797531 3.216660 0.000002 -0.000000 0.000001 0.000002 -0.000001 -0.000000 18.917324 -7.882697 -3.861452 4.200095 -1.795451 -1.343124 4.235618 -1.738957 -1.277737 0.860632 0.622247 0.717914 0.860614 0.622257 0.717907 -0.000000 -0.000001 0.000001 0.860576 0.622247 0.717917 0.860600 0.622246 0.717917 0.000002 0.000000 0.000003 -0.000000 -0.000001 0.000001 9.672533 -14.170798 -10.841917 -30.035849 4.444078 -47.862387 -0.000258 -82.425514 -0.000304 -135.570185 8.793883 16.845031 22.894239 -27.660292 23.219751 -18.755209 11.865874 -5.299203 -0.000000 -0.000002 -0.000003 2.832879 7.480940 -71.034794 2.292732 4.647699 -52.495874 0.000000 0.000000 -0.000002 2.632141 7.398167 -70.489547 3.026095 5.125990 -61.088584 -0.000000 0.000001 0.000000 1.360960 6.977506 -70.984763 3.334040 5.283690 -64.482245 -0.000002 0.000003 -0.000001 -0.326520 7.256145 -80.555565 1.705015 4.132188 -44.829291 -0.000004 0.000000 0.000001 -0.000000 0.000003 0.000007 -0.000000 0.000003 0.000007 -0.000000 0.000002 0.000007 -0.000001 -0.000002 -0.000001 -0.000001 -0.000002 -0.000002 -0.000001 -0.000002 -0.000001 -0.000003 -0.000002 -0.000002 -0.899037 20.634293 19.392418 -1.252124 35.114679 28.690695 0.000064 104.378746 -0.000057 -31.174739 -30.602048 7.139735 52.323607 29.641915 -26.183144 42.378298 -24.930004 37.205157 0.000001 -0.000002 0.000004 -2.012447 2.205784 21.312820 2.896818 -4.312344 67.768973 -0.000002 0.000000 0.000000 13.456673 -8.790154 78.781895 5.608632 -4.559123 101.801442 0.000000 0.000002 -0.000002 8.262333 -7.055087 88.116052 5.520472 -4.576597 100.694269 0.000002 0.000006 -0.000002 4.707894 -6.937682 92.892082 2.523287 -4.140467 62.703664 -0.000001 0.000001 0.000000 -0.000002 0.000000 0.000001 0.000001 0.000000 0.000001 -0.000002 0.000000 0.000001 -0.000001 0.000000 -0.000000 -0.000001 0.000000 0.000000 -0.000001 0.000000 -0.000000 -0.000001 -0.000000 0.000000 -0.000002 0.000001 -0.000003 -0.000002 0.000001 -0.000003 -0.000002 0.000001 -0.000003 -0.000002 0.000001 -0.000003 -0.000002 0.000001 -0.000003 -0.000002 0.000001 -0.000003 -0.000002 0.000001 -0.000003 0.000001 -0.000001 -0.000001 -0.000001 -0.000001 -0.000000 
